#N canvas 681 0 591 934 10;
#X obj 112 130 mtof;
#X obj 112 26 notein;
#X obj 215 159 pack 0 50;
#X obj 215 224 line~;
#X floatatom 291 109 5 0 0 0 - - -;
#X obj 234 513 output~;
#X floatatom 134 104 5 0 0 0 - - -;
#X obj 112 160 phasor~;
#X obj 112 189 expr~ $v1 > 0.5;
#X obj 343 126 mtof;
#X obj 343 20 notein;
#X obj 446 155 pack 0 50;
#X obj 446 220 line~;
#X floatatom 519 96 5 0 0 0 - - -;
#X floatatom 365 100 5 0 0 0 - - -;
#X obj 343 156 osc~;
#X obj 230 331 *~;
#X text 11 169 Squarewave ==>;
#X obj 215 87 / 32;
#X obj 446 83 / 32;
#X obj 232 420 *~;
#X obj 387 404 phasor~;
#X obj 476 255 vsl 15 128 0 127 0 0 empty empty empty 0 -9 0 10 -262144
-1 -1 9800 1;
#X obj 438 491 +~ 1;
#X obj 437 524 *~ 0.5;
#X connect 0 0 7 0;
#X connect 1 0 0 0;
#X connect 1 1 6 0;
#X connect 1 1 18 0;
#X connect 2 0 3 0;
#X connect 3 0 16 1;
#X connect 4 0 2 1;
#X connect 7 0 8 0;
#X connect 8 0 16 0;
#X connect 9 0 15 0;
#X connect 10 0 9 0;
#X connect 10 1 14 0;
#X connect 10 1 19 0;
#X connect 11 0 12 0;
#X connect 12 0 16 1;
#X connect 13 0 11 1;
#X connect 15 0 16 0;
#X connect 16 0 20 0;
#X connect 18 0 2 0;
#X connect 19 0 11 0;
#X connect 20 0 5 0;
#X connect 20 0 5 1;
#X connect 21 0 20 1;
#X connect 22 0 21 0;
#X connect 23 0 24 0;
