#N canvas 275 208 701 501 10;
#X obj 112 239 osc~ 440;
#X obj 136 311 dac~;
#X obj 112 161 mtof;
#X obj 112 76 notein;
#X floatatom 112 102 5 0 0 0 - - -;
#X floatatom 128 122 5 0 0 0 - - -;
#X floatatom 148 102 5 0 0 0 - - -;
#X connect 0 0 1 0;
#X connect 0 0 1 1;
#X connect 2 0 0 0;
#X connect 3 0 4 0;
#X connect 3 0 2 0;
#X connect 3 1 5 0;
#X connect 3 2 6 0;
