#N canvas 297 181 701 501 10;
#X obj 117 312 dac~;
#X obj 112 161 mtof;
#X obj 112 26 notein;
#X obj 112 191 osc~;
#X obj 183 159 pack 0 50;
#X obj 181 209 line~;
#X obj 117 239 *~;
#X floatatom 267 89 5 0 0 0 - - -;
#X obj 183 87 / 32;
#X connect 1 0 3 0;
#X connect 2 0 1 0;
#X connect 2 1 8 0;
#X connect 3 0 6 0;
#X connect 4 0 5 0;
#X connect 5 0 6 1;
#X connect 6 0 0 0;
#X connect 6 0 0 1;
#X connect 7 0 4 1;
#X connect 8 0 4 0;
